# xmcd
#
# Track frame offsets:
#	150
#	19151
#	38222
#	58755
#	79849
#	99154
#	115114
#	133221
#	147758
#	167448
#	188436
#	204953
#	224615
#	243949
#	260699
#	279052
#
# Disc length: 3975 seconds
#
# Revision: 2
# Processed by: cddbd v1.5.2PL0 Copyright (c) Steve Scherf et al.
# Submitted via: EasyCDDAExtractor 15.3.0.1
#
DISCID=d80f8510
DTITLE=Olga Tañon - Exitos En 2 Tiempos
DYEAR=2007
DGENRE=Latin
TTITLE0=Se Nos Rompio El Amor
TTITLE1=Cosas Del Amor (Con La Participacion De Jenni Rivera)
TTITLE2=La Tercera Es La Vencida
TTITLE3=Hoy Quiero Confesarme
TTITLE4=Amor Eterno
TTITLE5=Decision
TTITLE6=Hoy Quiero Confesarme (Merengue)
TTITLE7=Soy Otra Mujer (Bachata)
TTITLE8=Amor Eterno (Merengue)
TTITLE9=Amame En Camara Lenta (Tropical)
TTITLE10=Cosas Del Amor (Merengue) (Con La Participacion De Milly Quezada)
TTITLE11=Presencie Tu Amor (Bachata)
TTITLE12=Se Nos Rompio El Amor (Merengue)
TTITLE13=Hoy Quiero Confesarme (Cumbia Merengue)
TTITLE14=Amor Eterno (Bachata)
TTITLE15=Hoy Quiero Confesarme (Salsa)
EXTD=
EXTT0=
EXTT1=
EXTT2=
EXTT3=
EXTT4=
EXTT5=
EXTT6=
EXTT7=
EXTT8=
EXTT9=
EXTT10=
EXTT11=
EXTT12=
EXTT13=
EXTT14=
EXTT15=
PLAYORDER=
